<?xml version="1.0" standalone="no"?>
<!DOCTYPE svg PUBLIC "-//W3C//DTD SVG 1.1//EN" "http://www.w3.org/Graphics/SVG/1.1/DTD/svg11.dtd">
<svg version="1.1" xmlns="http://www.w3.org/2000/svg" viewBox="0 0 125 101.25" width="375" height="303.75"><!-- svg-source:excalidraw --><metadata></metadata><defs><style class="style-fonts">
      </style></defs><g stroke-linecap="round"><g transform="translate(19.25314465408792 91.25) rotate(0 43.24685534591208 -40.625)" fill-rule="evenodd"><path d="M0 0 L95.75 -77.5 L-9.25 -81.25 L18.24 -50 L0 0" stroke="none" stroke-width="0" fill="#ffc9c9" fill-rule="evenodd"></path><path d="M0 0 C29.64 -23.99, 59.28 -47.98, 95.75 -77.5 M0 0 C20.71 -16.76, 41.42 -33.52, 95.75 -77.5 M95.75 -77.5 C62.8 -78.68, 29.84 -79.85, -9.25 -81.25 M95.75 -77.5 C69.38 -78.44, 43.01 -79.38, -9.25 -81.25 M-9.25 -81.25 C0.73 -69.9, 10.72 -58.55, 18.24 -50 M-9.25 -81.25 C-0.6 -71.42, 8.04 -61.59, 18.24 -50 M18.24 -50 C12.11 -33.19, 5.98 -16.38, 0 0 M18.24 -50 C11.42 -31.3, 4.6 -12.6, 0 0 M0 0 C0 0, 0 0, 0 0 M0 0 C0 0, 0 0, 0 0" stroke="#e12afb" stroke-width="4" fill="none"></path></g></g><mask></mask><g stroke-linecap="round"><g transform="translate(38.74213836477975 42.5) rotate(0 35.393081761006215 -14.375)"><path d="M0 0 C26.64 -10.82, 53.27 -21.64, 70.79 -28.75 M0 0 C24.63 -10, 49.26 -20.01, 70.79 -28.75" stroke="#e12afb" stroke-width="4" fill="none"></path></g></g><mask></mask></svg>